<?xml version="1.0" encoding="utf-8"?>
<!-- Generator: Adobe Illustrator 25.0.1, SVG Export Plug-In . SVG Version: 6.00 Build 0)  -->
<svg version="1.1" id="Layer_1" xmlns="http://www.w3.org/2000/svg" xmlns:xlink="http://www.w3.org/1999/xlink" x="0px" y="0px"
	 viewBox="0 0 217.23 87.12" style="enable-background:new 0 0 217.23 87.12;" xml:space="preserve">
<style type="text/css">
	.st0{fill:url(#SVGID_1_);}
	.st1{fill:#333332;}
	.st2{font-family:'GeometrySoftPro-BoldN';}
	.st3{font-size:59px;}
	.st4{letter-spacing:1;}
</style>
<linearGradient id="SVGID_1_" gradientUnits="userSpaceOnUse" x1="7.149" y1="42.3452" x2="58.0081" y2="42.3452">
	<stop  offset="0" style="stop-color:#E83668"/>
	<stop  offset="0.6078" style="stop-color:#EE755E"/>
	<stop  offset="1" style="stop-color:#F3914C"/>
</linearGradient>
<path class="st0" d="M54.52,27.6c-2.25-2.25-5.24-3.49-8.43-3.49c-3.18,0-6.18,1.24-8.43,3.49l-4.76,4.76l-5.41-5.42
	c-2.25-2.25-5.24-3.49-8.43-3.49s-6.18,1.24-8.43,3.49c-2.25,2.25-3.49,5.24-3.49,8.43c0,3.18,1.24,6.18,3.49,8.43l9.45,9.45
	c-1.27,4.09-3.54,13.68,1.03,19.08c2.16,2.56,5.17,4.05,8.46,4.19c0.17,0.01,0.33,0.01,0.5,0.01c3.07,0,5.99-1.18,8.08-3.27
	c1.33-1.33,2-3.07,1.93-5.03c-0.19-6-7.72-13.14-10.18-15.32l-14.2-14.2c-0.89-0.89-1.39-2.08-1.39-3.35s0.49-2.45,1.39-3.35
	c0.89-0.89,2.08-1.39,3.35-1.39s2.45,0.49,3.35,1.39l5.99,5.99c1.2,1.34,9.03,9.71,17.35,9.96c3.33,0.09,6.36-1.12,8.77-3.52
	C59.17,39.8,59.17,32.24,54.52,27.6z M26.03,59.08c4.21,3.94,6.78,7.89,6.89,9.25c-0.77,0.67-1.91,1.05-3.04,1
	c-0.89-0.04-2.18-0.35-3.27-1.64C25.28,66.12,25.37,62.53,26.03,59.08z M38.2,37.23l4.55-4.55c0.89-0.89,2.08-1.39,3.35-1.39
	c1.26,0,2.45,0.49,3.35,1.39c1.85,1.85,1.85,4.85,0,6.69c-1.01,1.01-2.11,1.47-3.46,1.42C43.49,40.72,40.6,39.05,38.2,37.23z
	 M11.14,14.95c0-3.75,3.04-6.79,6.79-6.79c3.75,0,6.79,3.04,6.79,6.79c0,3.75-3.04,6.79-6.79,6.79
	C14.18,21.74,11.14,18.7,11.14,14.95z M38.39,14.95c0-3.75,3.04-6.79,6.79-6.79c3.75,0,6.79,3.04,6.79,6.79
	c0,3.75-3.04,6.79-6.79,6.79C41.42,21.74,38.39,18.7,38.39,14.95z"/>
<text transform="matrix(1 0 0 1 70.1633 64.2109)" class="st1 st2 st3 st4">Yoga</text>
</svg>
