<?xml version="1.0" encoding="utf-8"?>
<!-- Generator: Adobe Illustrator 25.0.1, SVG Export Plug-In . SVG Version: 6.00 Build 0)  -->
<svg version="1.1" id="Layer_1" xmlns="http://www.w3.org/2000/svg" xmlns:xlink="http://www.w3.org/1999/xlink" x="0px" y="0px"
	 viewBox="0 0 323.13 131.37" style="enable-background:new 0 0 323.13 131.37;" xml:space="preserve">
<style type="text/css">
	.st0{fill:url(#SVGID_1_);}
	.st1{fill:#FFFFFF;}
</style>
<linearGradient id="SVGID_1_" gradientUnits="userSpaceOnUse" x1="63.3124" y1="-27.7947" x2="288.5726" y2="186.5305">
	<stop  offset="0" style="stop-color:#E6264B"/>
	<stop  offset="1" style="stop-color:#ED6944"/>
</linearGradient>
<rect class="st0" width="323.13" height="131.37"/>
<path class="st1" d="M109.99,50.22c-2.25-2.25-5.24-3.49-8.43-3.49c-3.18,0-6.18,1.24-8.43,3.49l-4.76,4.76l-5.41-5.42
	c-2.25-2.25-5.24-3.49-8.43-3.49c-3.18,0-6.18,1.24-8.43,3.49c-2.25,2.25-3.49,5.24-3.49,8.43c0,3.18,1.24,6.18,3.49,8.43l9.45,9.45
	c-1.27,4.09-3.54,13.68,1.03,19.08c2.16,2.56,5.17,4.05,8.46,4.19c0.17,0.01,0.33,0.01,0.5,0.01c3.07,0,5.99-1.18,8.08-3.27
	c1.33-1.33,2-3.07,1.93-5.03c-0.19-6-7.72-13.14-10.18-15.32l-14.2-14.2c-0.89-0.89-1.39-2.08-1.39-3.35c0-1.26,0.49-2.45,1.39-3.35
	c0.89-0.89,2.08-1.39,3.35-1.39s2.45,0.49,3.35,1.39l5.99,5.99c1.2,1.34,9.03,9.71,17.35,9.96c3.33,0.09,6.36-1.12,8.77-3.52
	C114.64,62.42,114.64,54.86,109.99,50.22z M81.5,81.7c4.21,3.94,6.78,7.89,6.89,9.25c-0.77,0.67-1.91,1.05-3.04,1
	c-0.89-0.04-2.18-0.35-3.27-1.64C80.75,88.74,80.84,85.15,81.5,81.7z M93.67,59.84l4.55-4.55c0.89-0.89,2.08-1.39,3.35-1.39
	s2.45,0.49,3.35,1.39c1.85,1.85,1.85,4.85,0,6.69c-1.01,1.01-2.11,1.47-3.46,1.42C98.96,63.34,96.07,61.67,93.67,59.84z
	 M66.61,37.57c0-3.75,3.04-6.79,6.79-6.79c3.75,0,6.79,3.04,6.79,6.79c0,3.75-3.04,6.79-6.79,6.79
	C69.65,44.36,66.61,41.32,66.61,37.57z M93.86,37.57c0-3.75,3.04-6.79,6.79-6.79c3.75,0,6.79,3.04,6.79,6.79
	c0,3.75-3.04,6.79-6.79,6.79C96.89,44.36,93.86,41.32,93.86,37.57z"/>
<g>
	<path class="st1" d="M145.88,81.05V67.48L131.9,53.5c-0.71-0.71-1.12-1.65-1.12-2.66c0-2.01,1.77-3.78,3.78-3.78
		c1,0,1.95,0.41,2.66,1.12l12.45,12.45l12.45-12.45c0.71-0.71,1.65-1.12,2.66-1.12c2.01,0,3.78,1.77,3.78,3.78
		c0,1-0.41,1.95-1.12,2.66l-13.98,13.98v13.57c0,2.07-1.71,3.78-3.78,3.78C147.59,84.83,145.88,83.12,145.88,81.05z"/>
	<path class="st1" d="M179.28,54.62c8.32,0,15.11,6.79,15.11,15.11s-6.79,15.11-15.11,15.11c-8.32,0-15.11-6.79-15.11-15.11
		S170.96,54.62,179.28,54.62z M179.28,77.28c4.19,0,7.55-3.36,7.55-7.55s-3.36-7.55-7.55-7.55s-7.55,3.36-7.55,7.55
		S175.09,77.28,179.28,77.28z"/>
	<path class="st1" d="M220.46,82.94c-2.18,1.18-4.66,1.89-7.32,1.89c-8.32,0-15.11-6.79-15.11-15.11s6.79-15.11,15.11-15.11
		c2.71,0,5.25,0.77,7.43,2.01c0.71-1.47,2.18-2.48,3.89-2.48c2.36,0,4.25,1.89,4.25,4.25c0,1.71-1,3.19-2.48,3.89
		c1.24,2.18,2.01,4.72,2.01,7.43v11.33c0,8.32-6.79,15.11-15.11,15.11c-3.84,0-7.73-1.48-10.68-4.43c-0.71-0.71-1.12-1.65-1.12-2.66
		c0-2.01,1.77-3.78,3.78-3.78c1,0,1.95,0.41,2.66,1.12c1.53,1.48,3.42,2.18,5.37,2.18C216.68,88.61,219.63,86.19,220.46,82.94z
		 M213.14,77.28c4.19,0,7.55-3.36,7.55-7.55s-3.36-7.55-7.55-7.55s-7.55,3.36-7.55,7.55S208.95,77.28,213.14,77.28z"/>
	<path class="st1" d="M248.42,54.62c8.32,0,15.11,6.79,15.11,15.11c0,2.71-0.77,5.25-2.01,7.49c1.48,0.65,2.48,2.12,2.48,3.83
		c0,2.36-1.89,4.25-4.25,4.25c-1.71,0-3.19-1-3.89-2.48c-2.18,1.3-4.72,2.01-7.43,2.01c-8.32,0-15.11-6.79-15.11-15.11
		S240.1,54.62,248.42,54.62z M248.42,77.28c4.19,0,7.55-3.36,7.55-7.55s-3.36-7.55-7.55-7.55s-7.55,3.36-7.55,7.55
		S244.23,77.28,248.42,77.28z"/>
</g>
</svg>
